<mxfile host="app.diagrams.net" agent="Mozilla/5.0 (Macintosh; Intel Mac OS X 10.15; rv:141.0) Gecko/20100101 Firefox/141.0" version="28.0.9">
  <diagram name="Page-1" id="jBuIx5rtRVu_JP0zCbMl">
    <mxGraphModel dx="1018" dy="692" grid="1" gridSize="10" guides="1" tooltips="1" connect="1" arrows="1" fold="1" page="1" pageScale="1" pageWidth="850" pageHeight="1100" math="0" shadow="0">
      <root>
        <mxCell id="0" />
        <mxCell id="1" parent="0" />
        <mxCell id="6j-CWQsyC2ZFgy6-_v6g-11" value="" style="rounded=0;whiteSpace=wrap;html=1;" vertex="1" parent="1">
          <mxGeometry x="100" y="150" width="480" height="90" as="geometry" />
        </mxCell>
        <mxCell id="6j-CWQsyC2ZFgy6-_v6g-2" value="Postgres" style="image;sketch=0;aspect=fixed;html=1;points=[];align=center;fontSize=12;image=img/lib/mscae/Azure_Database_for_PostgreSQL_servers.svg;" vertex="1" parent="1">
          <mxGeometry x="440" y="450" width="38" height="50" as="geometry" />
        </mxCell>
        <mxCell id="6j-CWQsyC2ZFgy6-_v6g-13" style="edgeStyle=orthogonalEdgeStyle;rounded=0;orthogonalLoop=1;jettySize=auto;html=1;" edge="1" parent="1" source="6j-CWQsyC2ZFgy6-_v6g-3" target="6j-CWQsyC2ZFgy6-_v6g-7">
          <mxGeometry relative="1" as="geometry">
            <Array as="points">
              <mxPoint x="256" y="190" />
              <mxPoint x="459" y="190" />
            </Array>
          </mxGeometry>
        </mxCell>
        <mxCell id="6j-CWQsyC2ZFgy6-_v6g-15" value="Authentication" style="edgeLabel;html=1;align=center;verticalAlign=middle;resizable=0;points=[];" vertex="1" connectable="0" parent="6j-CWQsyC2ZFgy6-_v6g-13">
          <mxGeometry x="0.024" y="-3" relative="1" as="geometry">
            <mxPoint as="offset" />
          </mxGeometry>
        </mxCell>
        <mxCell id="6j-CWQsyC2ZFgy6-_v6g-3" value="" style="image;sketch=0;aspect=fixed;html=1;points=[];align=center;fontSize=12;image=img/lib/mscae/Person.svg;" vertex="1" parent="1">
          <mxGeometry x="237.25" y="50" width="37" height="50" as="geometry" />
        </mxCell>
        <mxCell id="6j-CWQsyC2ZFgy6-_v6g-18" style="edgeStyle=orthogonalEdgeStyle;rounded=0;orthogonalLoop=1;jettySize=auto;html=1;" edge="1" parent="1" source="6j-CWQsyC2ZFgy6-_v6g-5" target="6j-CWQsyC2ZFgy6-_v6g-8">
          <mxGeometry relative="1" as="geometry" />
        </mxCell>
        <mxCell id="6j-CWQsyC2ZFgy6-_v6g-21" value="forward" style="edgeLabel;html=1;align=center;verticalAlign=middle;resizable=0;points=[];" vertex="1" connectable="0" parent="6j-CWQsyC2ZFgy6-_v6g-18">
          <mxGeometry x="0.3906" y="1" relative="1" as="geometry">
            <mxPoint as="offset" />
          </mxGeometry>
        </mxCell>
        <mxCell id="6j-CWQsyC2ZFgy6-_v6g-6" value="Nginx" style="verticalLabelPosition=bottom;html=1;verticalAlign=top;align=center;strokeColor=none;fillColor=#00BEF2;shape=mxgraph.azure.load_balancer_generic;pointerEvents=1;" vertex="1" parent="1">
          <mxGeometry x="122.5" y="162" width="37.5" height="50" as="geometry" />
        </mxCell>
        <mxCell id="6j-CWQsyC2ZFgy6-_v6g-8" value="&lt;div&gt;CAMARA API 1&lt;/div&gt;&lt;div&gt;(Prism)&lt;/div&gt;" style="image;sketch=0;aspect=fixed;html=1;points=[];align=center;fontSize=12;image=img/lib/mscae/WebHosting.svg;" vertex="1" parent="1">
          <mxGeometry x="150" y="430" width="50" height="50" as="geometry" />
        </mxCell>
        <mxCell id="6j-CWQsyC2ZFgy6-_v6g-9" value="&lt;div&gt;CAMARA API 2&lt;/div&gt;&lt;div&gt;(Prism)&lt;/div&gt;" style="image;sketch=0;aspect=fixed;html=1;points=[];align=center;fontSize=12;image=img/lib/mscae/WebHosting.svg;" vertex="1" parent="1">
          <mxGeometry x="230.5" y="450" width="50" height="50" as="geometry" />
        </mxCell>
        <mxCell id="6j-CWQsyC2ZFgy6-_v6g-10" value="&lt;div&gt;CAMARA API 3&lt;/div&gt;&lt;div&gt;(Prism)&lt;/div&gt;" style="image;sketch=0;aspect=fixed;html=1;points=[];align=center;fontSize=12;image=img/lib/mscae/WebHosting.svg;" vertex="1" parent="1">
          <mxGeometry x="310" y="470" width="50" height="50" as="geometry" />
        </mxCell>
        <mxCell id="6j-CWQsyC2ZFgy6-_v6g-12" style="edgeStyle=orthogonalEdgeStyle;rounded=0;orthogonalLoop=1;jettySize=auto;html=1;entryX=0.51;entryY=-0.06;entryDx=0;entryDy=0;entryPerimeter=0;" edge="1" parent="1" source="6j-CWQsyC2ZFgy6-_v6g-3" target="6j-CWQsyC2ZFgy6-_v6g-5">
          <mxGeometry relative="1" as="geometry" />
        </mxCell>
        <mxCell id="6j-CWQsyC2ZFgy6-_v6g-14" value="API requests" style="edgeLabel;html=1;align=center;verticalAlign=middle;resizable=0;points=[];" vertex="1" connectable="0" parent="6j-CWQsyC2ZFgy6-_v6g-12">
          <mxGeometry x="0.3623" y="1" relative="1" as="geometry">
            <mxPoint y="-1" as="offset" />
          </mxGeometry>
        </mxCell>
        <mxCell id="6j-CWQsyC2ZFgy6-_v6g-23" value="HTTPS" style="edgeLabel;html=1;align=center;verticalAlign=middle;resizable=0;points=[];" vertex="1" connectable="0" parent="6j-CWQsyC2ZFgy6-_v6g-12">
          <mxGeometry x="-0.6727" relative="1" as="geometry">
            <mxPoint as="offset" />
          </mxGeometry>
        </mxCell>
        <mxCell id="6j-CWQsyC2ZFgy6-_v6g-16" style="edgeStyle=orthogonalEdgeStyle;rounded=0;orthogonalLoop=1;jettySize=auto;html=1;entryX=0.49;entryY=-0.04;entryDx=0;entryDy=0;entryPerimeter=0;" edge="1" parent="1" source="6j-CWQsyC2ZFgy6-_v6g-5" target="6j-CWQsyC2ZFgy6-_v6g-9">
          <mxGeometry relative="1" as="geometry" />
        </mxCell>
        <mxCell id="6j-CWQsyC2ZFgy6-_v6g-17" style="edgeStyle=orthogonalEdgeStyle;rounded=0;orthogonalLoop=1;jettySize=auto;html=1;entryX=0.54;entryY=0;entryDx=0;entryDy=0;entryPerimeter=0;" edge="1" parent="1" source="6j-CWQsyC2ZFgy6-_v6g-5" target="6j-CWQsyC2ZFgy6-_v6g-10">
          <mxGeometry relative="1" as="geometry" />
        </mxCell>
        <mxCell id="6j-CWQsyC2ZFgy6-_v6g-19" style="edgeStyle=orthogonalEdgeStyle;rounded=0;orthogonalLoop=1;jettySize=auto;html=1;entryX=0.5;entryY=-0.02;entryDx=0;entryDy=0;entryPerimeter=0;" edge="1" parent="1" source="6j-CWQsyC2ZFgy6-_v6g-7" target="6j-CWQsyC2ZFgy6-_v6g-2">
          <mxGeometry relative="1" as="geometry" />
        </mxCell>
        <mxCell id="6j-CWQsyC2ZFgy6-_v6g-20" value="sessions" style="edgeLabel;html=1;align=center;verticalAlign=middle;resizable=0;points=[];" vertex="1" connectable="0" parent="6j-CWQsyC2ZFgy6-_v6g-19">
          <mxGeometry x="0.0303" y="3" relative="1" as="geometry">
            <mxPoint as="offset" />
          </mxGeometry>
        </mxCell>
        <mxCell id="6j-CWQsyC2ZFgy6-_v6g-7" value="Keycloak" style="image;sketch=0;aspect=fixed;html=1;points=[];align=center;fontSize=12;image=img/lib/mscae/Managed_Identities.svg;" vertex="1" parent="1">
          <mxGeometry x="440" y="280" width="38" height="50" as="geometry" />
        </mxCell>
        <mxCell id="6j-CWQsyC2ZFgy6-_v6g-5" value="CAMARA API Gateway" style="image;sketch=0;aspect=fixed;html=1;points=[];align=center;fontSize=12;image=img/lib/mscae/Application_Gateway.svg;" vertex="1" parent="1">
          <mxGeometry x="230.5" y="280" width="50" height="50" as="geometry" />
        </mxCell>
      </root>
    </mxGraphModel>
  </diagram>
</mxfile>
